<svg width="137" height="53" viewBox="0 0 137 53" fill="none" xmlns="http://www.w3.org/2000/svg">
<path d="M13.916 43.588C12.152 43.588 10.584 43.392 9.212 43C7.87267 42.5753 6.82733 41.8567 6.076 40.844C5.32467 39.8313 4.949 38.443 4.949 36.679V23.743H1.323V17.128H5.341L7.448 9.288H14.7V17.128H20.188V23.743H14.7V33.592C14.7 34.7027 14.8797 35.552 15.239 36.14C15.5983 36.6953 16.3333 36.973 17.444 36.973H20.188V42.706C19.6653 42.8693 19.012 43.0163 18.228 43.147C17.4767 43.3103 16.709 43.4247 15.925 43.49C15.1737 43.5553 14.504 43.588 13.916 43.588ZM59.9312 43V7.426H69.6822V27.026L77.9632 17.128H89.3312L79.7762 27.565L89.5762 43H78.5022L73.0632 34.131L69.6822 37.414V43H59.9312ZM105.095 43.588C101.992 43.588 99.2971 43.1143 97.0104 42.167C94.7564 41.187 93.0088 39.7007 91.7674 37.708C90.5588 35.7153 89.9544 33.1673 89.9544 30.064C89.9544 27.026 90.5588 24.5107 91.7674 22.518C92.9761 20.5253 94.6584 19.039 96.8144 18.059C99.0031 17.0463 101.567 16.54 104.507 16.54C107.611 16.54 110.24 17.03 112.396 18.01C114.585 18.9573 116.251 20.4273 117.394 22.42C118.538 24.4127 119.109 26.9607 119.109 30.064V31.73H99.7054C99.7054 32.906 99.8688 33.9187 100.195 34.768C100.555 35.6173 101.11 36.2707 101.861 36.728C102.645 37.1527 103.658 37.365 104.899 37.365C105.781 37.365 106.516 37.267 107.104 37.071C107.725 36.875 108.215 36.6137 108.574 36.287C108.966 35.9277 109.244 35.5193 109.407 35.062C109.571 34.6047 109.652 34.1147 109.652 33.592H119.109C119.109 35.1273 118.815 36.5157 118.227 37.757C117.639 38.9983 116.757 40.06 115.581 40.942C114.405 41.7913 112.935 42.4447 111.171 42.902C109.44 43.3593 107.415 43.588 105.095 43.588ZM99.7544 27.124H109.26C109.26 26.438 109.162 25.8337 108.966 25.311C108.77 24.7557 108.476 24.2983 108.084 23.939C107.725 23.547 107.268 23.253 106.712 23.057C106.19 22.861 105.585 22.763 104.899 22.763C103.821 22.763 102.923 22.9427 102.204 23.302C101.486 23.6613 100.93 24.1677 100.538 24.821C100.146 25.4417 99.8851 26.2093 99.7544 27.124ZM123.813 14.09V7.475H133.564V14.09H123.813ZM123.813 43V17.128H133.564V43H123.813Z" fill="white"/>
<path d="M39.4999 6.08334C28.2299 6.08334 19.0833 15.23 19.0833 26.5C19.0833 37.77 28.2299 46.9167 39.4999 46.9167C50.7699 46.9167 59.9166 37.77 59.9166 26.5C59.9166 15.23 50.7699 6.08334 39.4999 6.08334ZM44.9307 30.0321L42.3174 31.5429L39.7041 33.0538C36.3353 34.9933 33.5791 33.4008 33.5791 29.5217V26.5V23.4783C33.5791 19.5788 36.3353 18.0067 39.7041 19.9463L42.3174 21.4571L44.9307 22.9679C48.2995 24.9075 48.2995 28.0925 44.9307 30.0321Z" fill="#FF0000"/>
</svg>
